<?xml version="1.0" encoding="UTF-8"?>
<svg width="199px" height="22px" viewBox="0 0 199 22" version="1.1" xmlns="http://www.w3.org/2000/svg" xmlns:xlink="http://www.w3.org/1999/xlink">
    <!-- Generator: Sketch 53 (72520) - https://sketchapp.com -->
    <title>logo_horizontal</title>
    <desc>Created with Sketch.</desc>
    <g id="Design" stroke="none" stroke-width="1" fill="none" fill-rule="evenodd">
        <g id="Tablet" transform="translate(-24.000000, -21.000000)" fill="#3C2D22">
            <g id="header">
                <g id="logo---horizontal" transform="translate(24.000000, 21.000000)">
                    <g id="EVERYDAY-THINGS">
                        <path d="M9.6150254,21.6374547 L0,21.6374547 L0,0.306396864 L9.6150254,0.306396864 L9.6150254,3.73512367 L3.9685689,3.73512367 L3.9685689,8.81255742 L9.20649625,8.81255742 L9.20649625,12.2558746 L3.9685689,12.2558746 L3.9685689,18.1649569 L9.6150254,18.1649569 L9.6150254,21.6374547 Z M21.9000806,0.306396864 L25.8978302,0.306396864 L20.8787577,21.6374547 L15.8305046,21.6374547 L10.8406129,0.306396864 L14.8383624,0.306396864 L17.6251148,13.3355587 C17.8780151,14.4444291 18.1260482,16.0347589 18.3692215,18.1065956 C18.5734871,16.3460207 18.831247,14.755691 19.1425088,13.3355587 L21.9000806,0.306396864 Z M36.3950077,21.6374547 L26.7799823,21.6374547 L26.7799823,0.306396864 L36.3950077,0.306396864 L36.3950077,3.73512367 L30.7485512,3.73512367 L30.7485512,8.81255742 L35.9864786,8.81255742 L35.9864786,12.2558746 L30.7485512,12.2558746 L30.7485512,18.1649569 L36.3950077,18.1649569 L36.3950077,21.6374547 Z M42.4713163,13.3355587 L42.4713163,21.6374547 L38.5027473,21.6374547 L38.5027473,0.306396864 L43.6969037,0.306396864 C45.8951906,0.306396864 47.5171324,0.826779985 48.5627777,1.86756184 C49.608423,2.90834369 50.1312379,4.49867341 50.1312379,6.63859872 C50.1312379,9.33295922 49.2217832,11.2150926 47.4028467,12.2850552 L51.5027286,21.6374547 L47.2569435,21.6374547 L43.886578,13.3355587 L42.4713163,13.3355587 Z M42.4713163,9.92142226 L43.4926391,9.92142226 C44.4264247,9.92142226 45.097573,9.65636731 45.5061042,9.12624945 C45.9146354,8.59613159 46.118898,7.80583012 46.118898,6.75532133 C46.118898,5.66590482 45.902477,4.89019353 45.4696284,4.4281642 C45.0367799,3.96613487 44.3680633,3.73512367 43.4634585,3.73512367 L42.4713163,3.73512367 L42.4713163,9.92142226 Z M57.5790371,8.72501546 L60.4241508,0.306396864 L64.582394,0.306396864 L59.5195506,13.0875232 L59.5195506,21.6374547 L55.609343,21.6374547 L55.609343,13.2480168 L50.5610899,0.306396864 L54.7485137,0.306396864 L57.5790371,8.72501546 Z M80.0335501,10.7676612 C80.0335501,14.288811 79.3161996,16.9806994 77.8814769,18.8434071 C76.4467543,20.7061148 74.3822437,21.6374547 71.6878832,21.6374547 L66.4645462,21.6374547 L66.4645462,0.306396864 L72.169364,0.306396864 C74.6497319,0.306396864 76.5804992,1.22314657 77.9617237,3.05667348 C79.3429482,4.89020039 80.0335501,7.46050393 80.0335501,10.7676612 L80.0335501,10.7676612 Z M75.9628489,10.8843838 C75.9628489,6.11818656 74.6497327,3.73512367 72.0234607,3.73512367 L70.4331151,3.73512367 L70.4331151,18.1649569 L71.7170638,18.1649569 C73.1663769,18.1649569 74.2363235,17.5594644 74.9269357,16.3484612 C75.617548,15.1374581 75.9628489,13.3161171 75.9628489,10.8843838 L75.9628489,10.8843838 Z M92.2377959,21.6374547 L91.0122085,16.2536241 L85.4532939,16.2536241 L84.2277065,21.6374547 L80.2591376,21.6374547 L85.5408359,0.218854903 L90.9246665,0.218854903 L96.2209552,21.6374547 L92.2377959,21.6374547 Z M90.2681018,12.7373553 L89.1300563,7.77664421 C89.0619678,7.47510928 88.9087709,6.71885157 88.670461,5.50784839 C88.4321512,4.2968452 88.288681,3.48709016 88.2400464,3.07855897 C88.1135962,3.91507522 87.9531043,4.83668832 87.7585656,5.84342591 C87.5640269,6.85016349 87.058234,9.14811699 86.2411716,12.7373553 L90.2681018,12.7373553 Z M101.728241,8.72501546 L104.573355,0.306396864 L108.731598,0.306396864 L103.668754,13.0875232 L103.668754,21.6374547 L99.7585468,21.6374547 L99.7585468,13.2480168 L94.7102937,0.306396864 L98.8977175,0.306396864 L101.728241,8.72501546 Z M124.547512,21.6374547 L120.593534,21.6374547 L120.593534,3.79348498 L116.508242,3.79348498 L116.508242,0.306396864 L128.632804,0.306396864 L128.632804,3.79348498 L124.547512,3.79348498 L124.547512,21.6374547 Z M144.08396,21.6374547 L140.115391,21.6374547 L140.115391,12.2850552 L134.877464,12.2850552 L134.877464,21.6374547 L130.908895,21.6374547 L130.908895,0.306396864 L134.877464,0.306396864 L134.877464,8.78337677 L140.115391,8.78337677 L140.115391,0.306396864 L144.08396,0.306396864 L144.08396,21.6374547 Z M147.56319,21.6374547 L147.56319,0.306396864 L151.298314,0.306396864 L151.298314,21.6374547 L147.56319,21.6374547 Z M169.74722,21.6374547 L164.903231,21.6374547 L158.308403,6.18629859 L158.118729,6.18629859 C158.361902,7.3632575 158.483487,8.62773985 158.483487,9.97978357 L158.483487,21.6374547 L154.806725,21.6374547 L154.806725,0.306396864 L159.679894,0.306396864 L166.21636,15.5970594 L166.376854,15.5970594 C166.192042,14.5757314 166.099638,13.359883 166.099638,11.9494777 L166.099638,0.306396864 L169.74722,0.306396864 L169.74722,21.6374547 Z M178.960448,9.80469965 L185.482324,9.80469965 L185.482324,20.7474448 C183.634207,21.5353264 181.669396,21.9292613 179.587832,21.9292613 C177.107464,21.9292613 175.198582,20.9857629 173.861129,19.0987379 C172.523676,17.2117128 171.854959,14.4930758 171.854959,10.9427451 C171.854959,7.51886465 172.620944,4.83913475 174.152936,2.90347504 C175.684928,0.967815336 177.827253,0 180.579975,0 C182.282188,0 183.906561,0.437705429 185.453144,1.31312942 L184.198376,4.55218198 C182.992236,3.85184279 181.863929,3.50167845 180.81342,3.50167845 C179.305745,3.50167845 178.111782,4.17525847 177.231495,5.52243871 C176.351207,6.86961896 175.91107,8.70555007 175.91107,11.0302871 C175.91107,13.4231127 176.229622,15.2566121 176.866736,16.5308403 C177.503851,17.8050686 178.430327,18.4421731 179.646194,18.4421731 C180.288171,18.4421731 180.939866,18.3594955 181.601297,18.1941376 L181.601297,13.3063781 L178.960448,13.3063781 L178.960448,9.80469965 Z M198.453125,15.757553 C198.453125,17.7515743 197.949764,19.2786799 196.943026,20.3389156 C195.936289,21.3991514 194.484566,21.9292613 192.587814,21.9292613 C190.729969,21.9292613 189.149366,21.5645067 187.845957,20.8349867 L187.845957,16.9101888 C189.441174,17.9509707 190.905056,18.4713538 192.237646,18.4713538 C192.996347,18.4713538 193.567795,18.2622279 193.952009,17.8439697 C194.336223,17.4257116 194.528327,16.8566946 194.528327,16.1369015 C194.528327,15.4268354 194.299748,14.7775723 193.842582,14.1890929 C193.385416,13.6006134 192.63159,12.946487 191.581081,12.2266939 C190.666749,11.5944432 189.973716,10.9889507 189.501959,10.4101982 C189.030203,9.83144569 188.665449,9.18218263 188.407685,8.46238958 C188.149921,7.74259652 188.021041,6.90609281 188.021041,5.95285336 C188.021041,4.12418991 188.529266,2.67489861 189.54573,1.60493595 C190.562195,0.534973302 191.926377,0 193.638317,0 C195.272442,0 196.843318,0.457159003 198.350993,1.37149072 L197.037863,4.55218198 C196.570971,4.27982785 196.082199,4.03665817 195.571535,3.82266564 C195.060871,3.60867311 194.51374,3.50167845 193.930124,3.50167845 C193.288146,3.50167845 192.794512,3.71323607 192.449205,4.13635766 C192.103899,4.55947926 191.931249,5.13579141 191.931249,5.8653114 C191.931249,6.58510445 192.137943,7.21248223 192.551338,7.74746356 C192.964732,8.28244489 193.686946,8.89036909 194.718001,9.57125442 C196.108953,10.50504 197.0792,11.4582652 197.628772,12.4309585 C198.178343,13.4036518 198.453125,14.5125056 198.453125,15.757553 L198.453125,15.757553 Z"></path>
                    </g>
                </g>
            </g>
        </g>
    </g>
</svg>