<?xml version="1.0" encoding="UTF-8"?>
<svg width="182px" height="67px" viewBox="0 0 182 67" version="1.1" xmlns="http://www.w3.org/2000/svg" xmlns:xlink="http://www.w3.org/1999/xlink">
    <!-- Generator: Sketch 53 (72520) - https://sketchapp.com -->
    <title>logo_stacked</title>
    <desc>Created with Sketch.</desc>
    <g id="Design" stroke="none" stroke-width="1" fill="none" fill-rule="evenodd">
        <g id="Desktop" transform="translate(-130.000000, -22.000000)" fill="#3C2D22">
            <g id="header" transform="translate(0.000000, -0.000000)">
                <g id="logo_stacked" transform="translate(130.000000, 22.000000)">
                    <path d="M2.4158105,32.8808833 L2.4158105,0.47924395 L17.5659622,0.47924395 L17.5659622,5.87523236 L8.6689839,5.87523236 L8.6689839,13.8658875 L16.9222532,13.8658875 L16.9222532,19.2848376 L8.6689839,19.2848376 L8.6689839,28.584307 L17.5659622,28.584307 L17.5659622,32.8808833 L19.1752348,32.8808833 L19.1752348,38.3687183 L12.7381445,38.3687183 L12.7381445,66.4508197 L6.50796074,66.4508197 L6.50796074,38.3687183 L0.0708704757,38.3687183 L0.0708704757,32.8808833 L2.4158105,32.8808833 Z" id="Path"></path>
                    <path d="M29.0147871,34.0491803 L29.0147871,46.2216036 L37.2680564,46.2216036 L37.2680564,32.8808833 L43.5212298,32.8808833 L43.5212298,66.4508197 L37.2680564,66.4508197 L37.2680564,51.7324002 L29.0147871,51.7324002 L29.0147871,66.4508197 L22.7616137,66.4508197 L22.7616137,32.8808833 L27.0859073,32.8808833 L19.4970893,0.47924395 L25.7962419,0.47924395 L30.1872571,20.9839999 C30.5857456,22.7290942 30.976565,25.2318894 31.3597271,28.4924604 C31.6815832,25.7217404 32.0877289,23.2189453 32.5781763,20.9839999 L36.9232122,0.47924395 L43.2223649,0.47924395 L35.3139397,34.0491803 L29.0147871,34.0491803 Z" id="Path"></path>
                    <path d="M56.4643791,34.0491803 L56.4643791,66.4508197 L50.5790394,66.4508197 L50.5790394,34.0491803 L46.1880243,34.0491803 L46.1880243,0.47924395 L61.338176,0.47924395 L61.338176,5.87523236 L52.4411977,5.87523236 L52.4411977,13.8658875 L60.694467,13.8658875 L60.694467,19.2848376 L52.4411977,19.2848376 L52.4411977,28.584307 L61.338176,28.584307 L61.338176,34.0491803 L56.4643791,34.0491803 Z" id="Path"></path>
                    <path d="M112.651225,34.0491803 C112.913078,34.1800798 113.173546,34.3187654 113.432628,34.4652373 L111.455522,39.5627243 C109.555038,38.4605594 107.777193,37.9094853 106.121933,37.9094853 C103.746328,37.9094853 101.86503,38.9695376 100.477984,41.0896742 C99.0909372,43.2098107 98.3974243,46.0991231 98.3974243,49.7576981 C98.3974243,53.523428 98.899359,56.4089135 99.9032436,58.4142412 C100.907128,60.4195689 102.366954,61.4222177 104.282764,61.4222177 C105.294312,61.4222177 106.321171,61.292103 107.363371,61.0318696 L107.363371,53.3397159 L103.202252,53.3397159 L103.202252,47.8289193 L113.478607,47.8289193 L113.478607,65.0501589 C110.566576,66.2900943 107.470673,66.9100527 104.190806,66.9100527 C100.282553,66.9100527 97.2747756,65.425214 95.1673843,62.4554921 C93.059993,59.4857701 92.0063132,55.2072916 92.0063132,49.6199282 C92.0063132,44.2315667 93.2132556,40.0143187 95.6271765,36.9680575 C96.5903144,35.7526202 97.7065484,34.7796621 98.9758849,34.0491803 L94.7650662,34.0491803 L94.7650662,20.84623 L86.8106618,0.47924395 L93.4086793,0.47924395 L97.8686633,13.7281176 L102.351637,0.47924395 L108.903675,0.47924395 L100.926281,20.5936518 L100.926281,33.1590218 C102.375518,32.652132 103.984788,32.3986886 105.754099,32.3986886 C107.868738,32.3986886 109.907137,32.8268735 111.869335,33.6832536 L111.869335,0.47924395 L120.858271,0.47924395 C124.766524,0.47924395 127.808785,1.92198671 129.985146,4.8075155 C132.161506,7.6930443 133.24967,11.7380817 133.24967,16.942749 C133.24967,22.4841889 132.119359,26.7205715 129.858703,29.6520238 C128.980068,30.791373 127.95153,31.709307 126.773085,32.4058284 C129.189038,32.4838275 131.516469,33.2009067 133.755441,34.5570839 L131.686377,39.5627243 C130.950706,39.1341046 130.180561,38.7514142 129.375921,38.4146416 C128.571281,38.077869 127.709179,37.9094853 126.78959,37.9094853 C125.778042,37.9094853 125.000235,38.2424259 124.456145,38.9083172 C123.912055,39.5742084 123.640014,40.4811846 123.640014,41.629273 C123.640014,42.7620535 123.965697,43.7493947 124.617072,44.5913262 C125.268448,45.4332577 126.406422,46.3899837 128.031029,47.4615328 C130.222716,48.9310859 131.75151,50.4312323 132.617456,51.9620168 C133.483402,53.4928013 133.916369,55.2378694 133.916369,57.1972736 C133.916369,60.3353818 133.123235,62.7386775 131.536944,64.4072326 C129.950653,66.0757877 127.66321,66.9100527 124.674546,66.9100527 C121.747188,66.9100527 119.256672,66.3360171 117.202924,65.1879288 L117.202924,59.0112442 C119.716467,60.6491836 122.023068,61.468141 124.122796,61.468141 C125.318261,61.468141 126.218679,61.1390273 126.824075,60.4807899 C127.429471,59.8225526 127.732164,58.9270571 127.732164,57.7942766 C127.732164,56.6768039 127.371997,55.6550205 126.651653,54.7288959 C125.931308,53.8027713 124.743523,52.7733342 123.088263,51.6405536 C121.647574,50.6455437 120.555579,49.6926446 119.812244,48.7818279 C119.06891,47.8710111 118.494175,46.8492277 118.088024,45.7164472 C117.681872,44.5836667 117.478799,43.2672117 117.478799,41.7670429 C117.478799,38.8891681 118.279596,36.6083333 119.881213,34.9244704 C120.194912,34.5946622 120.52963,34.2971533 120.885367,34.0319434 C120.62734,34.0434347 120.365422,34.0491803 120.099614,34.0491803 L112.651225,34.0491803 Z M126.835569,17.1264422 C126.835569,9.62559814 124.766525,5.87523236 120.628375,5.87523236 L118.122508,5.87523236 L118.122508,28.584307 L120.145594,28.584307 C122.429239,28.584307 124.115127,27.6314079 125.203307,25.7255812 C126.291488,23.8197545 126.835569,20.9534035 126.835569,17.1264422 Z" id="Path"></path>
                    <polygon id="Path" points="170.584794 13.7281176 175.067767 0.47924395 181.619806 0.47924395 173.642412 20.5936518 173.642412 34.0491803 167.481197 34.0491803 167.481197 20.84623 159.526792 0.47924395 166.12481 0.47924395"></polygon>
                    <path d="M66.2349625,32.8808833 L66.2349625,0.47924395 L74.419263,0.47924395 C77.883048,0.47924395 80.4387005,1.29820138 82.0862973,2.9361408 C83.7338941,4.57408022 84.5576802,7.07687535 84.5576802,10.4446013 C84.5576802,14.6848743 83.1246756,17.6468979 80.2586235,19.3307609 L86.2059246,32.8808833 L87.1095267,32.8808833 L87.1095267,66.4508197 L79.4769768,66.4508197 L69.085674,42.1344294 L68.786809,42.1344294 C69.1699711,43.9866786 69.3615492,45.9766686 69.3615492,48.1044591 L69.3615492,66.4508197 L63.568168,66.4508197 L63.568168,32.8808833 L66.2349625,32.8808833 Z M71.7467298,34.0491803 L81.5460415,56.9446954 L81.7989272,56.9446954 C81.5077241,55.3373717 81.3621247,53.4239198 81.3621247,51.2042822 L81.3621247,34.0491803 L80.0287274,34.0491803 L74.7181279,20.9839999 L72.4881359,20.9839999 L72.4881359,34.0491803 L71.7467298,34.0491803 Z M72.4881359,15.6109731 L74.0974085,15.6109731 C75.5687508,15.6109731 76.6262622,15.1938406 77.2699744,14.3595631 C77.9136867,13.5252855 78.235538,12.2815417 78.235538,10.6282945 C78.235538,8.91381584 77.8945289,7.6930335 77.2125004,6.96591086 C76.530472,6.23878822 75.4767921,5.87523236 74.0514293,5.87523236 L72.4881359,5.87523236 L72.4881359,15.6109731 Z" id="Path"></path>
                    <path d="M154.055265,34.0491803 L152.124138,25.5763304 L143.365098,25.5763304 L141.433971,34.0491803 L135.180797,34.0491803 L143.503035,0.341474033 L151.986201,0.341474033 L160.331428,34.0491803 L154.055265,34.0491803 Z M150.951668,20.0425721 L149.158479,12.2356102 C149.051194,11.761067 148.809805,10.5708999 148.434306,8.66507317 C148.058807,6.75924646 147.832745,5.48488747 147.756113,4.84195798 C147.556869,6.15843266 147.303985,7.60882922 146.997456,9.19319118 C146.690926,10.7775531 145.893961,14.3939773 144.606537,20.0425721 L150.951668,20.0425721 Z" id="Path"></path>
                </g>
            </g>
        </g>
    </g>
</svg>