<?xml version="1.0" encoding="UTF-8"?>
<svg width="154px" height="183px" viewBox="0 0 154 183" version="1.1" xmlns="http://www.w3.org/2000/svg" xmlns:xlink="http://www.w3.org/1999/xlink">
    <!-- Generator: Sketch 53 (72520) - https://sketchapp.com -->
    <title>oven mitt</title>
    <desc>Created with Sketch.</desc>
    <g id="Design" stroke="none" stroke-width="1" fill="none" fill-rule="evenodd">
        <g id="Desktop" transform="translate(-947.000000, -1317.000000)">
            <g id="essentials" transform="translate(129.000000, 1293.000000)">
                <g id="oven-mitt" transform="translate(887.653125, 100.526359) rotate(20.000000) translate(-887.653125, -100.526359) translate(817.653125, 19.026359)">
                    <rect id="Rectangle" fill="#D3611D" x="41.7512627" y="148" width="98" height="15"></rect>
                    <path d="M44.7512627,129.748737 L5.47918472,90.4766594 L5.48413833,90.4717058 C5.36339416,90.3575518 5.24387716,90.2413518 5.12563133,90.123106 C-1.70854378,83.2889309 -1.70854378,72.2085438 5.12563133,65.3743687 C11.9598064,58.5401936 23.0401936,58.5401936 29.8743687,65.3743687 C29.9926145,65.4926145 30.1088144,65.6121315 30.2229685,65.7328757 L30.2279221,65.7279221 L44.7512627,80.2512627 L44.7512627,48 L44.7538399,48 C44.7521231,47.8335371 44.7512627,47.666869 44.7512627,47.5 C44.7512627,21.2664744 66.017737,0 92.2512627,0 C118.484788,0 139.751263,21.2664744 139.751263,47.5 C139.751263,47.666869 139.750402,47.8335371 139.748685,48 L139.751263,163 L44.7512627,163 L44.7512627,129.748737 Z" id="Combined-Shape" stroke="#574A3F" stroke-width="8"></path>
                </g>
            </g>
        </g>
    </g>
</svg>